<svg width="36" height="36" viewBox="0 0 36 36" fill="none" xmlns="http://www.w3.org/2000/svg">
<g clip-path="url(#clip0_87_31)">
<path fill-rule="evenodd" clip-rule="evenodd" d="M19.0605 23.5605C18.7792 23.8417 18.3978 23.9997 18 23.9997C17.6023 23.9997 17.2208 23.8417 16.9395 23.5605L8.45403 15.075C8.31076 14.9366 8.19649 14.7711 8.11787 14.5881C8.03926 14.4051 7.99788 14.2083 7.99615 14.0091C7.99442 13.8099 8.03237 13.6124 8.10779 13.4281C8.18322 13.2437 8.29459 13.0762 8.43543 12.9354C8.57627 12.7946 8.74375 12.6832 8.92809 12.6078C9.11244 12.5323 9.30996 12.4944 9.50913 12.4961C9.7083 12.4979 9.90513 12.5392 10.0881 12.6178C10.2711 12.6965 10.4367 12.8107 10.575 12.954L18 20.379L25.425 12.954C25.7079 12.6808 26.0868 12.5296 26.4801 12.533C26.8734 12.5364 27.2496 12.6942 27.5278 12.9723C27.8059 13.2504 27.9636 13.6266 27.967 14.0199C27.9705 14.4132 27.8193 14.7921 27.546 15.075L19.0605 23.5605Z" fill="white"/>
</g>
<defs>
<clipPath id="clip0_87_31">
<rect width="36" height="36" fill="white"/>
</clipPath>
</defs>
</svg>
